{"glyphs":{":":{"x_min":0,"x_max":177,"ha":177,"o":"m 34 401 q 34 423 50 439 q 66 455 89 455 q 111 455 127 439 q 143 423 143 401 q 143 378 127 362 q 111 346 89 346 q 66 346 50 362 q 34 378 34 401 z m 34 46 q 34 68 50 84 q 66 100 89 100 q 111 100 127 84 q 143 68 143 46 q 143 23 127 7 q 111 -9 89 -9 q 66 -9 50 7 q 34 23 34 46 z"},"$":{"x_min":0,"x_max":375,"ha":375,"o":"m 26 29 l 26 115 q 97 72 159 72 l 159 307 q 91 360 59 405 q 27 451 27 503 q 27 556 62 598 q 98 641 159 650 l 159 682 l 217 682 l 217 655 q 270 655 333 623 l 333 540 q 270 577 217 578 l 217 377 q 348 279 348 164 q 348 104 313 59 q 278 14 217 -3 l 217 -103 l 159 -103 l 159 -9 q 80 -1 26 29 z m 159 424 l 159 571 q 107 550 107 506 q 107 464 159 424 z m 217 260 l 217 83 q 270 109 270 161 q 270 217 217 260 z"},"?":{"x_min":0,"x_max":250,"ha":250,"o":"m 32 578 l 94 674 q 160 669 197 630 q 234 591 234 531 q 234 503 223 469 q 212 436 167 361 q 122 286 109 246 q 97 205 98 171 q 46 196 46 259 q 46 287 56 320 q 65 354 104 421 q 142 489 142 523 q 142 548 124 567 q 106 585 81 585 q 63 585 39 572 z m 113 -9 q 91 -9 74 7 q 58 23 58 46 q 58 68 74 84 q 90 100 113 100 q 135 100 151 84 q 167 68 167 46 q 167 23 151 7 q 135 -9 113 -9 z"},"<":{"x_min":0,"x_max":667,"ha":667,"o":"m 97 313 l 97 395 l 571 595 l 571 507 l 195 354 l 571 201 l 571 113 z"},"'":{"x_min":0,"x_max":191,"ha":191,"o":"m 46 716 l 146 716 l 146 596 l 123 462 l 69 462 l 46 596 z"},"=":{"x_min":0,"x_max":667,"ha":667,"o":"m 97 503 l 570 503 l 570 420 l 97 420 z m 97 287 l 570 287 l 570 204 l 97 204 z"},"a":{"x_min":0,"x_max":333,"ha":333,"o":"m 322 82 l 322 23 q 285 -10 261 -10 q 218 -10 204 46 q 161 -12 119 -12 q 84 -12 58 21 q 32 55 32 100 q 32 152 69 189 q 105 226 201 281 l 201 323 q 201 381 155 381 q 107 381 43 308 l 43 398 q 103 455 161 455 q 210 455 244 423 q 279 391 279 336 l 279 86 q 279 60 291 60 q 298 60 322 82 z m 201 113 l 201 227 q 109 171 109 112 q 109 90 120 76 q 130 62 147 62 q 167 62 184 84 q 201 106 201 113 z"},"L":{"x_min":0,"x_max":313,"ha":313,"o":"m 59 0 l 59 668 l 145 668 l 145 80 l 310 80 l 310 0 z"},"3":{"x_min":0,"x_max":365,"ha":365,"o":"m 46 8 l 46 93 q 87 72 120 72 q 160 72 184 105 q 208 138 208 193 q 208 298 121 312 l 121 397 q 200 409 200 495 q 200 540 178 566 q 157 593 120 593 q 93 593 61 574 l 61 658 q 96 675 138 675 q 202 675 245 627 q 288 580 288 509 q 288 408 187 357 q 296 317 296 185 q 296 103 248 45 q 200 -12 132 -12 q 97 -12 46 8 z"},";":{"x_min":0,"x_max":177,"ha":177,"o":"m 34 401 q 34 423 50 439 q 66 455 89 455 q 111 455 127 439 q 143 423 143 401 q 143 378 127 362 q 111 346 89 346 q 66 346 50 362 q 34 378 34 401 z m 37 -130 l 36 -121 q 69 -72 64 -8 q 22 2 22 45 q 22 69 38 86 q 53 102 76 102 q 104 102 122 77 q 140 53 140 13 q 140 -86 37 -130 z"},"J":{"x_min":0,"x_max":208,"ha":208,"o":"m -24 -198 l -33 -120 q -9 -122 5 -122 q 42 -122 52 -105 q 63 -88 63 -37 l 63 668 l 149 668 l 149 -23 q 149 -202 17 -202 q -2 -202 -24 -198 z"},"V":{"x_min":0,"x_max":323,"ha":323,"o":"m 132 -9 l 9 668 l 99 668 l 162 218 l 224 668 l 314 668 l 191 -9 z"},"\"":{"x_min":0,"x_max":355,"ha":355,"o":"m 209 716 l 309 716 l 309 596 l 286 462 l 232 462 l 209 596 z m 47 716 l 147 716 l 147 596 l 124 462 l 70 462 l 47 596 z"},"7":{"x_min":0,"x_max":365,"ha":365,"o":"m 98 6 l 217 590 l 46 590 l 46 668 l 319 668 l 179 -12 z"},"S":{"x_min":0,"x_max":281,"ha":281,"o":"m 32 17 l 32 106 q 71 69 107 69 q 134 69 153 88 q 172 107 172 134 q 172 157 161 189 q 150 222 103 310 q 56 398 42 444 q 28 489 28 524 q 28 591 66 634 q 104 677 164 677 q 198 677 236 659 l 236 578 q 201 599 176 599 q 111 599 111 535 q 111 512 122 479 q 133 446 180 359 q 227 271 241 226 q 255 180 255 145 q 255 77 217 34 q 178 -9 117 -9 q 73 -9 32 17 z"},"}":{"x_min":0,"x_max":334,"ha":334,"o":"m 306 256 l 306 176 q 252 175 229 141 q 205 107 205 16 l 205 -59 q 205 -164 172 -208 q 140 -253 56 -253 l 23 -253 l 23 -179 l 37 -179 q 90 -179 106 -159 q 122 -139 122 -76 l 122 -5 q 122 99 146 146 q 169 194 225 216 q 169 238 146 286 q 122 333 122 437 l 122 508 q 122 572 106 592 q 91 611 38 611 l 23 611 l 23 685 l 56 685 q 140 685 172 640 q 205 596 205 491 l 205 416 q 205 325 229 291 q 252 257 306 256 z"},"Z":{"x_min":0,"x_max":292,"ha":292,"o":"m 16 0 l 170 588 l 34 588 l 34 668 l 276 668 l 122 80 l 276 80 l 276 0 z"},"x":{"x_min":0,"x_max":323,"ha":323,"o":"m 15 0 l 117 226 l 15 443 l 97 443 l 158 302 l 216 443 l 296 443 l 200 226 l 307 0 l 225 0 l 158 153 l 97 0 z"},")":{"x_min":0,"x_max":229,"ha":229,"o":"m 8 -246 q 60 -161 82 -59 q 105 43 105 214 q 105 385 82 487 q 60 589 8 674 l 53 674 q 125 559 157 457 q 188 355 188 214 q 188 73 157 -29 q 125 -131 53 -246 z"},"&":{"x_min":0,"x_max":417,"ha":417,"o":"m 309 -9 l 284 50 q 233 -9 176 -9 q 114 -9 71 48 q 27 105 27 187 q 27 306 127 394 q 90 476 90 532 q 90 591 126 633 q 163 675 213 675 q 261 675 294 639 q 327 603 327 551 q 327 466 229 380 l 294 227 l 296 227 q 312 291 317 336 l 393 336 q 384 231 338 131 l 402 -9 z m 195 451 q 225 480 239 501 q 253 522 253 552 q 253 576 241 592 q 229 608 212 608 q 193 608 181 590 q 168 573 168 547 q 168 504 195 451 z m 249 129 l 164 317 q 137 284 125 258 q 113 233 113 194 q 113 143 133 110 q 153 77 183 77 q 218 77 249 129 z"},"_":{"x_min":0,"x_max":500,"ha":500,"o":"m -6 -75 l 506 -75 l 506 -125 l -6 -125 z"},"v":{"x_min":0,"x_max":302,"ha":302,"o":"m 140 -10 l 7 443 l 85 443 l 150 190 l 152 190 l 217 443 l 295 443 l 162 -10 z"},"O":{"x_min":0,"x_max":427,"ha":427,"o":"m 214 -9 q 135 -9 85 83 q 35 174 35 334 q 35 485 82 581 q 129 677 214 677 q 296 677 344 581 q 393 485 393 334 q 393 173 342 82 q 291 -9 214 -9 z m 213 597 q 170 597 148 527 q 125 457 125 334 q 125 207 148 139 q 172 71 215 71 q 256 71 280 140 q 303 209 303 334 q 303 460 279 529 q 255 597 213 597 z"},"(":{"x_min":0,"x_max":229,"ha":229,"o":"m 221 674 q 169 589 147 487 q 124 385 124 214 q 124 43 147 -59 q 169 -161 221 -246 l 176 -246 q 104 -131 72 -29 q 41 73 41 214 q 41 355 72 457 q 104 559 176 674 z"},"C":{"x_min":0,"x_max":333,"ha":333,"o":"m 314 119 l 314 29 q 266 -9 212 -9 q 126 -9 79 79 q 32 167 32 330 q 32 493 79 585 q 126 677 214 677 q 256 677 306 642 l 306 555 q 263 597 220 597 q 168 597 145 536 q 122 476 122 334 q 122 194 146 132 q 169 71 223 71 q 260 71 314 119 z"},"W":{"x_min":0,"x_max":604,"ha":604,"o":"m 153 -9 l 10 668 l 100 668 l 179 219 l 181 219 l 271 668 l 333 668 l 418 209 l 420 209 l 504 668 l 594 668 l 451 -9 l 392 -9 l 302 438 l 300 438 l 212 -9 z"},"A":{"x_min":0,"x_max":354,"ha":354,"o":"m 7 0 l 133 672 l 222 672 l 347 0 l 264 0 l 240 148 l 116 148 l 90 0 z m 129 228 l 225 228 l 178 508 l 176 508 z"},"f":{"x_min":0,"x_max":188,"ha":188,"o":"m 57 0 l 57 375 l 22 375 l 22 443 l 57 443 l 57 513 q 57 677 213 677 l 213 612 q 172 612 153 587 q 135 563 135 509 l 135 443 l 178 443 l 178 375 l 135 375 l 135 0 z"},"Q":{"x_min":0,"x_max":427,"ha":427,"o":"m 407 -47 l 351 -133 q 259 -123 177 -3 q 35 56 35 334 q 35 486 83 581 q 131 677 215 677 q 293 677 343 584 q 393 491 393 334 q 393 85 274 9 q 322 -53 357 -53 q 375 -53 392 -37 z m 213 597 q 170 597 148 527 q 125 456 125 334 q 125 207 148 139 q 172 71 215 71 q 257 71 280 140 q 303 209 303 334 q 303 460 279 529 q 255 597 213 597 z"},"w":{"x_min":0,"x_max":448,"ha":448,"o":"m 126 -10 l 6 443 l 85 443 l 141 205 l 143 205 l 209 443 l 239 443 l 305 205 l 307 205 l 363 443 l 442 443 l 322 -10 l 300 -10 l 225 256 l 223 256 l 148 -10 z"},"-":{"x_min":0,"x_max":240,"ha":240,"o":"m 29 182 l 29 266 l 210 266 l 210 182 z"},"E":{"x_min":0,"x_max":364,"ha":364,"o":"m 58 0 l 58 668 l 296 668 l 296 588 l 144 588 l 144 388 l 283 388 l 283 308 l 144 308 l 144 80 l 304 80 l 304 0 z"},"s":{"x_min":0,"x_max":250,"ha":250,"o":"m 28 24 l 28 110 q 71 62 105 62 q 122 62 133 73 q 144 83 144 100 q 144 130 100 196 q 56 262 44 294 q 33 325 33 351 q 33 396 60 426 q 87 455 129 455 q 167 455 203 427 l 203 353 q 165 384 136 384 q 105 384 105 351 q 105 323 151 260 q 196 196 209 163 q 221 130 221 102 q 221 53 191 20 q 161 -12 115 -12 q 72 -12 28 24 z"},">":{"x_min":0,"x_max":667,"ha":667,"o":"m 571 313 l 97 113 l 97 201 l 473 354 l 97 507 l 97 595 l 571 395 z"},"l":{"x_min":0,"x_max":167,"ha":167,"o":"m 44 0 l 44 668 l 122 668 l 122 0 z"},"8":{"x_min":0,"x_max":365,"ha":365,"o":"m 249 347 q 326 298 326 188 q 326 97 287 42 q 247 -12 182 -12 q 118 -12 78 42 q 39 96 39 185 q 39 300 116 347 q 47 399 47 494 q 47 579 89 627 q 131 675 182 675 q 235 675 277 626 q 318 577 318 494 q 318 399 249 347 z m 135 482 q 135 436 147 409 q 160 383 181 383 q 202 383 215 409 q 227 436 227 481 q 227 591 181 591 q 135 591 135 482 z m 127 188 q 127 136 142 104 q 158 72 182 72 q 207 72 222 104 q 238 135 238 188 q 238 299 182 299 q 127 299 127 188 z"},"\\":{"x_min":0,"x_max":281,"ha":281,"o":"m 271 -9 l 200 -9 l 10 668 l 81 668 z"},"e":{"x_min":0,"x_max":313,"ha":313,"o":"m 267 104 l 267 27 q 226 -12 176 -12 q 108 -12 71 48 q 34 109 34 222 q 34 333 67 394 q 99 455 157 455 q 278 455 276 204 l 112 204 q 112 60 191 60 q 234 60 267 104 z m 111 262 l 198 262 q 198 387 153 387 q 111 387 111 262 z"},"b":{"x_min":0,"x_max":354,"ha":354,"o":"m 46 0 l 46 668 l 124 668 l 124 420 l 126 420 q 147 455 194 455 q 247 455 283 396 q 320 338 320 226 q 320 115 284 54 q 248 -7 192 -7 q 152 -7 124 26 l 124 0 z m 124 340 l 124 110 q 145 67 177 67 q 240 67 240 227 q 240 301 222 341 q 204 381 172 381 q 152 381 138 363 q 124 344 124 340 z"},"%":{"x_min":0,"x_max":604,"ha":604,"o":"m 98 -30 l 440 677 l 502 677 l 161 -30 z m 109 321 q 17 321 17 498 q 17 675 109 675 q 201 675 201 499 q 201 321 109 321 z m 109 375 q 136 375 136 494 q 136 570 130 596 q 125 622 109 622 q 93 622 88 592 q 82 562 82 493 q 82 375 109 375 z m 495 -7 q 403 -7 403 170 q 403 347 495 347 q 587 347 587 171 q 587 -7 495 -7 z m 495 47 q 522 47 522 166 q 522 242 516 268 q 510 294 495 294 q 479 294 473 264 q 468 233 468 165 q 468 47 495 47 z"},"m":{"x_min":0,"x_max":531,"ha":531,"o":"m 490 0 l 412 0 l 412 315 q 412 381 370 381 q 338 381 308 329 l 308 0 l 230 0 l 230 314 q 230 381 187 381 q 158 381 126 328 l 126 0 l 48 0 l 48 443 l 126 443 l 126 395 l 128 395 q 160 450 210 450 q 267 450 301 384 q 324 418 343 434 q 362 450 392 450 q 436 450 463 416 q 490 382 490 320 z"},"#":{"x_min":0,"x_max":668,"ha":668,"o":"m 69 517 l 216 517 l 259 728 l 332 728 l 289 517 l 443 517 l 486 728 l 559 728 l 516 517 l 599 517 l 599 444 l 501 444 l 467 272 l 599 272 l 599 199 l 452 199 l 409 -12 l 336 -12 l 379 199 l 225 199 l 182 -12 l 109 -12 l 152 199 l 69 199 l 69 272 l 167 272 l 201 444 l 69 444 z m 274 444 l 240 272 l 394 272 l 428 444 z"},",":{"x_min":0,"x_max":177,"ha":177,"o":"m 37 -130 l 36 -121 q 69 -72 64 -8 q 22 2 22 45 q 22 69 38 86 q 53 102 76 102 q 104 102 122 77 q 140 53 140 13 q 140 -86 37 -130 z"},"n":{"x_min":0,"x_max":354,"ha":354,"o":"m 49 0 l 49 443 l 127 443 l 127 395 l 129 395 q 162 450 211 450 q 255 450 281 416 q 308 381 308 319 l 308 0 l 230 0 l 230 317 q 230 381 188 381 q 165 381 146 357 q 127 333 127 328 l 127 0 z"},"h":{"x_min":0,"x_max":354,"ha":354,"o":"m 51 0 l 51 668 l 129 668 l 129 399 l 131 399 q 163 455 213 455 q 254 455 282 422 q 310 390 310 330 l 310 0 l 232 0 l 232 321 q 232 385 191 385 q 167 385 148 361 q 129 338 129 333 l 129 0 z"},"z":{"x_min":0,"x_max":281,"ha":281,"o":"m 14 0 l 152 375 l 27 375 l 27 443 l 260 443 l 120 68 l 263 68 l 263 0 z"},"B":{"x_min":0,"x_max":385,"ha":385,"o":"m 59 0 l 59 668 l 161 668 q 237 668 287 619 q 337 570 337 503 q 337 413 250 359 q 352 311 352 193 q 352 107 297 54 q 242 0 140 0 z m 145 385 l 153 385 q 198 385 224 413 q 251 441 251 489 q 251 536 225 562 q 200 588 153 588 l 145 588 z m 145 80 l 160 80 q 210 80 238 109 q 266 138 266 190 q 266 241 239 273 q 211 305 160 305 l 145 305 z"},"K":{"x_min":0,"x_max":354,"ha":354,"o":"m 60 0 l 60 668 l 146 668 l 146 0 z m 268 0 l 149 339 l 243 668 l 331 668 l 226 350 l 357 0 z"},"R":{"x_min":0,"x_max":365,"ha":365,"o":"m 59 0 l 59 668 l 131 668 q 217 668 262 617 q 307 567 307 483 q 307 388 238 340 q 292 302 329 137 l 360 0 l 270 0 l 244 115 q 216 236 196 269 q 175 302 145 299 l 145 0 z m 145 379 l 149 379 q 221 379 221 480 q 221 587 145 588 z"},"T":{"x_min":0,"x_max":313,"ha":313,"o":"m 113 0 l 113 588 l 10 588 l 10 668 l 302 668 l 302 588 l 199 588 l 199 0 z"},"P":{"x_min":0,"x_max":375,"ha":375,"o":"m 62 0 l 62 668 l 153 668 q 245 668 300 619 q 354 569 354 483 q 354 395 304 344 q 253 293 166 293 l 148 293 l 148 0 z m 148 373 l 163 373 q 268 373 268 488 q 268 591 148 588 z"},"|":{"x_min":0,"x_max":527,"ha":527,"o":"m 225 668 l 303 668 l 303 -270 l 225 -270 z"},"t":{"x_min":0,"x_max":229,"ha":229,"o":"m 218 74 l 218 5 q 178 -12 149 -12 q 67 -12 67 87 l 67 375 l 16 375 l 16 382 q 72 450 138 557 l 145 557 l 145 443 l 218 443 l 218 375 l 145 375 l 145 122 q 145 87 152 74 q 158 62 176 62 q 192 62 218 74 z"},"M":{"x_min":0,"x_max":458,"ha":458,"o":"m 229 423 l 328 668 l 402 668 l 402 0 l 318 0 l 323 483 l 321 485 l 237 265 l 221 265 l 137 485 l 135 483 l 140 0 l 56 0 l 56 668 l 130 668 z"},"g":{"x_min":0,"x_max":333,"ha":333,"o":"m 322 375 l 263 375 q 288 334 288 267 q 288 124 164 104 q 142 100 132 94 q 123 88 123 71 q 123 58 132 48 q 142 39 205 26 q 268 13 294 -23 q 321 -59 321 -108 q 321 -168 278 -207 q 235 -245 167 -245 q 104 -245 62 -210 q 20 -174 20 -122 q 20 -46 96 -13 q 46 9 46 52 q 46 99 108 123 q 40 170 40 275 q 40 352 75 397 q 110 443 171 443 l 322 443 z m 165 384 q 141 384 126 355 q 111 326 111 275 q 111 223 125 193 q 140 164 165 164 q 189 164 203 192 q 217 220 217 270 q 217 323 203 353 q 188 384 165 384 z m 165 -42 q 132 -42 112 -62 q 91 -81 91 -112 q 91 -142 112 -161 q 134 -179 169 -179 q 204 -179 227 -160 q 250 -140 250 -112 q 250 -83 225 -62 q 200 -42 165 -42 z"},"j":{"x_min":0,"x_max":167,"ha":167,"o":"m 80 587 q 62 587 48 600 q 35 613 35 632 q 35 651 48 664 q 62 677 80 677 q 99 677 112 664 q 125 651 125 632 q 125 613 112 600 q 99 587 80 587 z m -5 -239 l -5 -164 q 22 -160 33 -140 q 44 -120 44 -65 l 44 443 l 122 443 l 122 -32 q 122 -111 113 -145 q 104 -179 75 -207 q 45 -234 -5 -239 z"},"i":{"x_min":0,"x_max":177,"ha":177,"o":"m 89 587 q 70 587 57 600 q 44 613 44 632 q 44 651 57 664 q 70 677 89 677 q 107 677 121 664 q 134 651 134 632 q 134 613 121 600 q 107 587 89 587 z m 50 0 l 50 443 l 128 443 l 128 0 z"},"y":{"x_min":0,"x_max":313,"ha":313,"o":"m 35 -244 l 125 78 l 8 443 l 89 443 l 161 212 l 163 212 l 227 443 l 305 443 l 113 -244 z"},"@":{"x_min":0,"x_max":1015,"ha":1015,"o":"m 692 494 l 631 108 q 629 97 629 90 q 629 70 648 70 q 690 70 743 134 q 795 199 795 311 q 795 438 721 514 q 647 589 523 589 q 380 589 290 490 q 199 391 199 233 q 199 80 287 -14 q 374 -108 516 -108 q 655 -108 769 -17 l 879 -17 q 817 -96 718 -143 q 619 -190 518 -190 q 347 -190 231 -69 q 115 53 115 233 q 115 412 223 542 q 331 672 523 672 q 688 672 783 569 q 879 466 879 311 q 879 167 791 77 q 703 -12 616 -12 q 557 -12 540 46 q 482 -12 423 -12 q 353 -12 309 46 q 264 104 264 198 q 264 319 325 415 q 386 511 473 511 q 540 511 588 439 l 597 494 z m 490 427 q 438 427 405 352 q 372 278 372 171 q 372 121 390 93 q 407 65 439 65 q 492 65 523 144 q 554 223 554 336 q 554 427 490 427 z"},".":{"x_min":0,"x_max":177,"ha":177,"o":"m 34 46 q 34 68 50 84 q 66 100 89 100 q 111 100 127 84 q 143 68 143 46 q 143 23 127 7 q 111 -9 89 -9 q 66 -9 50 7 q 34 23 34 46 z"},"p":{"x_min":0,"x_max":354,"ha":354,"o":"m 49 -239 l 49 443 l 127 443 l 127 411 l 129 411 q 154 450 196 450 q 250 450 286 383 q 323 316 323 215 q 323 114 287 51 q 251 -12 196 -12 q 158 -12 129 27 l 127 27 l 127 -239 z m 127 337 l 127 102 q 154 62 181 62 q 243 62 243 216 q 243 376 174 376 q 154 376 141 359 q 127 342 127 337 z"},"X":{"x_min":0,"x_max":354,"ha":354,"o":"m 8 0 l 125 355 l 24 668 l 116 668 l 175 447 l 177 447 l 237 668 l 329 668 l 228 355 l 346 0 l 254 0 l 177 248 l 175 248 l 100 0 z"},"*":{"x_min":0,"x_max":354,"ha":354,"o":"m 195 507 q 246 477 263 460 q 281 443 281 426 q 281 414 270 403 q 259 393 246 393 q 205 393 187 500 q 180 498 178 498 q 175 498 168 500 q 148 393 109 393 q 95 393 84 403 q 74 413 74 426 q 74 456 159 507 q 152 515 153 523 q 135 520 106 520 q 31 520 31 559 q 31 572 40 581 q 50 591 63 591 q 94 591 157 535 q 161 544 171 546 q 144 608 144 636 q 144 653 153 664 q 163 675 177 675 q 191 675 201 664 q 210 653 210 637 q 210 608 183 546 q 193 544 198 535 q 259 591 291 591 q 305 591 314 582 q 324 572 324 559 q 324 520 248 520 q 219 520 201 523 q 201 513 195 507 z"},"Y":{"x_min":0,"x_max":313,"ha":313,"o":"m 112 0 l 112 305 l 7 668 l 95 668 l 153 406 l 155 406 l 216 668 l 305 668 l 198 305 l 198 0 z"},"c":{"x_min":0,"x_max":281,"ha":281,"o":"m 271 87 l 271 12 q 233 -12 194 -12 q 126 -12 81 53 q 35 118 35 218 q 35 322 80 389 q 125 455 194 455 q 227 455 264 439 l 264 359 q 229 381 206 381 q 165 381 140 338 q 115 294 115 220 q 115 147 142 105 q 169 62 214 62 q 240 62 271 87 z"},"!":{"x_min":0,"x_max":177,"ha":177,"o":"m 38 553 q 38 674 89 674 q 140 674 140 553 q 140 456 122 323 q 104 191 89 191 q 75 191 56 323 q 38 456 38 553 z m 89 -9 q 66 -9 50 7 q 34 23 34 46 q 34 68 50 84 q 66 100 89 100 q 111 100 127 84 q 143 68 143 46 q 143 23 127 7 q 111 -9 89 -9 z"},"/":{"x_min":0,"x_max":281,"ha":281,"o":"m 10 -9 l 200 668 l 271 668 l 81 -9 z"},"[":{"x_min":0,"x_max":260,"ha":260,"o":"m 80 -236 l 80 668 l 253 668 l 253 594 l 158 594 l 158 -162 l 253 -162 l 253 -236 z"},"6":{"x_min":0,"x_max":365,"ha":365,"o":"m 294 668 l 166 405 q 187 410 202 410 q 258 410 292 354 q 327 298 327 206 q 327 112 286 50 q 246 -12 186 -12 q 128 -12 88 44 q 49 101 49 207 q 49 342 110 467 l 208 668 z m 187 326 q 137 326 137 199 q 137 72 188 72 q 239 72 239 213 q 239 326 187 326 z"},"r":{"x_min":0,"x_max":250,"ha":250,"o":"m 51 0 l 51 443 l 129 443 l 129 323 l 131 323 q 154 402 170 426 q 185 450 213 450 q 234 450 253 437 l 247 357 q 231 368 213 368 q 176 368 153 302 q 129 236 129 176 l 129 0 z"},"2":{"x_min":0,"x_max":365,"ha":365,"o":"m 34 0 l 34 13 q 210 304 210 472 q 210 523 186 553 q 163 584 123 584 q 95 584 48 562 l 48 651 q 100 675 145 675 q 216 675 257 625 q 298 575 298 488 q 298 413 266 324 q 233 236 156 85 l 312 85 l 312 0 z"},"{":{"x_min":0,"x_max":334,"ha":334,"o":"m 29 176 l 29 256 q 83 257 106 291 q 130 325 130 416 l 130 491 q 130 596 163 640 q 195 685 279 685 l 312 685 l 312 611 l 297 611 q 244 611 229 592 q 213 572 213 508 l 213 437 q 213 333 189 286 q 166 238 110 216 q 166 194 189 146 q 213 99 213 -5 l 213 -76 q 213 -140 229 -160 q 244 -179 297 -179 l 312 -179 l 312 -253 l 279 -253 q 195 -253 163 -208 q 130 -164 130 -59 l 130 16 q 130 107 106 141 q 83 175 29 176 z"},"9":{"x_min":0,"x_max":365,"ha":365,"o":"m 87 0 l 211 258 q 189 253 175 253 q 119 253 84 309 q 49 366 49 458 q 49 551 90 613 q 131 675 190 675 q 251 675 289 616 q 327 557 327 455 q 327 323 267 198 l 172 0 z m 189 337 q 239 337 239 464 q 239 591 189 591 q 137 591 137 451 q 137 337 189 337 z"}," ":{"x_min":0,"x_max":333,"ha":333,"o":""},"I":{"x_min":0,"x_max":198,"ha":198,"o":"m 56 0 l 56 668 l 142 668 l 142 0 z"},"H":{"x_min":0,"x_max":417,"ha":417,"o":"m 59 0 l 59 668 l 145 668 l 145 374 l 272 374 l 272 668 l 358 668 l 358 0 l 272 0 l 272 294 l 145 294 l 145 0 z"},"4":{"x_min":0,"x_max":365,"ha":365,"o":"m 202 0 l 202 183 l 27 183 l 27 260 l 208 675 l 288 675 l 288 243 l 325 243 l 325 183 l 288 183 l 288 0 z m 202 243 l 202 511 l 200 511 l 86 243 z"},"~":{"x_min":0,"x_max":656,"ha":656,"o":"m 592 413 l 592 342 q 518 280 454 280 q 405 280 323 319 q 241 359 207 359 q 144 359 64 292 l 64 362 q 142 423 207 423 q 256 423 336 384 q 416 344 451 344 q 515 344 592 413 z"},"D":{"x_min":0,"x_max":417,"ha":417,"o":"m 55 0 l 55 668 l 150 668 q 379 668 379 335 q 379 168 322 84 q 265 0 162 0 z m 141 80 l 154 80 q 230 80 261 138 q 293 197 293 331 q 293 471 263 530 q 233 588 156 588 l 141 588 z"},"^":{"x_min":0,"x_max":469,"ha":469,"o":"m 26 337 l 199 728 l 270 728 l 442 337 l 352 337 l 234 629 l 117 337 z"},"0":{"x_min":0,"x_max":365,"ha":365,"o":"m 181 -12 q 106 -12 72 72 q 37 157 37 331 q 37 675 181 675 q 255 675 291 593 q 327 510 327 331 q 327 159 293 73 q 259 -12 181 -12 z m 239 331 q 239 486 225 542 q 212 597 182 597 q 153 597 139 548 q 125 500 125 331 q 125 67 182 67 q 239 67 239 331 z"},"F":{"x_min":0,"x_max":325,"ha":325,"o":"m 58 0 l 58 668 l 266 668 l 266 588 l 144 588 l 144 389 l 258 389 l 258 309 l 144 309 l 144 0 z"},"`":{"x_min":0,"x_max":333,"ha":333,"o":"m 200 515 l 155 515 l 84 661 l 179 661 z"},"k":{"x_min":0,"x_max":344,"ha":344,"o":"m 48 0 l 48 668 l 126 668 l 126 0 z m 255 0 l 134 228 l 245 443 l 327 443 l 209 233 l 342 0 z"},"u":{"x_min":0,"x_max":354,"ha":354,"o":"m 302 443 l 302 0 l 224 0 l 224 48 l 222 48 q 191 -7 143 -7 q 99 -7 71 27 q 43 61 43 120 l 43 443 l 121 443 l 121 126 q 121 63 163 63 q 188 63 206 85 q 224 107 224 115 l 224 443 z"},"]":{"x_min":0,"x_max":260,"ha":260,"o":"m 180 -236 l 7 -236 l 7 -162 l 102 -162 l 102 594 l 7 594 l 7 668 l 180 668 z"},"U":{"x_min":0,"x_max":406,"ha":406,"o":"m 54 668 l 140 668 l 140 166 q 140 71 203 71 q 231 71 249 95 q 266 119 266 162 l 266 668 l 352 668 l 352 172 q 352 84 308 38 q 263 -9 203 -9 q 139 -9 97 40 q 54 88 54 165 z"},"o":{"x_min":0,"x_max":344,"ha":344,"o":"m 172 -12 q 108 -12 71 50 q 33 112 33 221 q 33 330 71 393 q 108 455 172 455 q 236 455 273 393 q 311 330 311 221 q 311 112 273 50 q 236 -12 172 -12 z m 171 381 q 113 381 113 221 q 113 62 173 62 q 231 62 231 221 q 231 381 171 381 z"},"N":{"x_min":0,"x_max":417,"ha":417,"o":"m 59 0 l 59 668 l 129 668 l 277 256 l 279 256 l 279 668 l 358 668 l 358 0 l 288 0 l 140 416 l 138 416 l 138 0 z"},"+":{"x_min":0,"x_max":667,"ha":667,"o":"m 97 394 l 292 394 l 292 589 l 375 589 l 375 394 l 570 394 l 570 311 l 375 311 l 375 116 l 292 116 l 292 311 l 97 311 z"},"G":{"x_min":0,"x_max":417,"ha":417,"o":"m 372 359 l 372 31 q 312 -9 254 -9 q 152 -9 93 82 q 34 172 34 333 q 34 492 91 584 q 148 677 244 677 q 302 677 372 629 l 372 537 q 300 602 248 602 q 120 602 120 333 q 120 71 256 71 q 267 71 286 74 l 286 279 l 227 279 l 227 359 z"},"q":{"x_min":0,"x_max":354,"ha":354,"o":"m 230 -239 l 230 26 l 228 26 q 203 -12 160 -12 q 105 -12 69 51 q 32 114 32 220 q 32 326 67 388 q 103 450 159 450 q 203 450 228 410 l 230 410 l 230 443 l 308 443 l 308 -239 z m 230 106 l 230 331 q 209 376 176 376 q 112 376 112 216 q 112 143 130 103 q 149 62 181 62 q 203 62 216 82 q 230 102 230 106 z"},"d":{"x_min":0,"x_max":354,"ha":354,"o":"m 308 0 l 230 0 l 230 34 l 228 34 q 200 -7 157 -7 q 105 -7 69 55 q 32 116 32 220 q 32 325 68 390 q 104 455 161 455 q 201 455 230 419 l 230 668 l 308 668 z m 230 113 l 230 337 q 214 381 179 381 q 148 381 130 338 q 112 295 112 218 q 112 71 175 71 q 198 71 214 89 q 230 108 230 113 z"},"1":{"x_min":0,"x_max":365,"ha":365,"o":"m 139 0 l 139 668 l 225 668 l 225 0 z"},"5":{"x_min":0,"x_max":365,"ha":365,"o":"m 52 6 l 52 87 q 92 72 119 72 q 166 72 194 106 q 221 140 221 199 q 221 256 192 289 q 163 321 111 321 q 88 321 76 317 l 76 668 l 288 668 l 288 590 l 160 590 l 160 392 q 309 371 309 202 q 309 110 259 49 q 209 -12 135 -12 q 93 -12 52 6 z"}}}
